<svg xmlns:inkscape="http://www.inkscape.org/namespaces/inkscape" xmlns:sodipodi="http://sodipodi.sourceforge.net/DTD/sodipodi-0.dtd" xmlns="http://www.w3.org/2000/svg" xmlns:svg="http://www.w3.org/2000/svg" xmlns:rdf="http://www.w3.org/1999/02/22-rdf-syntax-ns#" xmlns:cc="http://creativecommons.org/ns#" xmlns:dc="http://purl.org/dc/elements/1.1/" viewBox="0 0 16.933333 21.1666675" version="1.1" x="0px" y="0px"><g><path style="color:#000000;" d="m 9.2245031,2.6621127 a 0.26458399,0.26458399 0 0 0 -0.2635514,0.26355 0.26458399,0.26458399 0 0 0 0.2635514,0.26354 h 0.6485387 v 0.98858 c -2.2324959,0.53947 -3.8948544,2.56558 -3.8948544,4.97644 0,2.8223103 2.2782106,5.1170003 5.0823786,5.1170003 2.804168,0 5.079793,-2.29469 5.079793,-5.1170003 0,-2.41064 -1.660498,-4.43623 -3.892269,-4.97593 v -0.98909 h 0.646472 a 0.26458399,0.26458399 0 0 0 0.265618,-0.26354 0.26458399,0.26458399 0 0 0 -0.265618,-0.26355 z m 1.1777059,0.52709 h 1.316198 v 0.89039 c -0.215445,-0.0281 -0.434834,-0.0424 -0.657841,-0.0424 -0.223007,0 -0.442889,0.0142 -0.658357,0.0424 z m 0.658357,1.37718 c 2.516002,0 4.552693,2.04935 4.552693,4.58784 0,2.5384903 -2.036691,4.5899003 -4.552693,4.5899003 -2.5160023,0 -4.5526934,-2.05141 -4.5526934,-4.5899003 0,-2.53849 2.0366911,-4.58784 4.5526934,-4.58784 z m -8.2325713,0.0372 a 0.26458399,0.26458399 0 0 0 -0.2656178,0.26562 0.26458399,0.26458399 0 0 0 0.2656178,0.26355 h 3.339846 a 0.26458399,0.26458399 0 0 0 0.2656179,-0.26355 0.26458399,0.26458399 0 0 0 -0.2656179,-0.26562 z m 8.1834773,1.42162 a 0.26458399,0.26458399 0 0 0 -0.263548,0.26562 v 3.283 a 0.26461045,0.26461045 0 0 0 0.263548,0.26613 h 1.888774 a 0.26458399,0.26458399 0 0 0 0.265617,-0.26613 0.26458399,0.26458399 0 0 0 -0.265617,-0.26355 h -1.625222 v -3.01945 a 0.26458399,0.26458399 0 0 0 -0.263552,-0.26562 z m -9.4567845,0.72295 a 0.26458399,0.26458399 0 0 0 -0.2656179,0.26355 0.26458399,0.26458399 0 0 0 0.2656179,0.26355 h 3.3398459 a 0.26458399,0.26458399 0 0 0 0.2656179,-0.26355 0.26458399,0.26458399 0 0 0 -0.2656179,-0.26355 z m -0.4960938,2.14251 a 0.26458399,0.26458399 0 0 0 -0.26561782,0.26355 0.26458399,0.26458399 0 0 0 0.26561782,0.26561 h 3.339846 a 0.26458399,0.26458399 0 0 0 0.2656178,-0.26561 0.26458399,0.26458399 0 0 0 -0.2656178,-0.26355 z m 0.4960938,2.1425003 a 0.26458399,0.26458399 0 0 0 -0.2656179,0.26355 0.26458399,0.26458399 0 0 0 0.2656179,0.26562 h 3.3398459 a 0.26458399,0.26458399 0 0 0 0.2656179,-0.26562 0.26458399,0.26458399 0 0 0 -0.2656179,-0.26355 z m 1.2733072,2.14251 a 0.26458399,0.26458399 0 0 0 -0.2656178,0.26355 0.26458399,0.26458399 0 0 0 0.2656178,0.26561 h 3.339846 a 0.26458399,0.26458399 0 0 0 0.2656179,-0.26561 0.26458399,0.26458399 0 0 0 -0.2656179,-0.26355 z" fill="#000000" stroke-width="1" stroke-linecap="round" stroke-linejoin="round"/></g><text x="0" y="31.933334" fill="#000000" font-size="5px" font-weight="bold" font-family="'Helvetica Neue', Helvetica, Arial-Unicode, Arial, Sans-serif">Created by Larea</text><text x="0" y="36.933334" fill="#000000" font-size="5px" font-weight="bold" font-family="'Helvetica Neue', Helvetica, Arial-Unicode, Arial, Sans-serif">from the Noun Project</text></svg>