<svg xmlns="http://www.w3.org/2000/svg" version="1.1" viewBox="-5.0 -10.0 110.0 135.0">
 <path d="m12.801 15.121v74.875h57.336v-1.1328c-0.03125-0.015625-0.058594-0.027343-0.089844-0.042969l-0.027344-0.007812-0.03125-0.015625c-0.023437-0.015625-0.050781-0.027344-0.074219-0.035156l-0.035156-0.019531c-0.03125-0.015626-0.058594-0.027344-0.089844-0.046876l-0.046874-0.023437c-0.023438-0.007813-0.046876-0.023437-0.066407-0.03125-0.023437-0.015625-0.046875-0.027344-0.070312-0.035156l-0.054688-0.03125c-0.023437-0.015625-0.046875-0.027344-0.074219-0.042969l-0.042968-0.027344c-0.027344-0.015625-0.054688-0.03125-0.078125-0.046875l-0.042969-0.027343c-0.027344-0.019532-0.058594-0.035157-0.089844-0.054688l-0.023437-0.019531c-0.03125-0.019531-0.066407-0.042969-0.097657-0.066407l-0.023437-0.015624c-0.03125-0.023438-0.066406-0.046876-0.097656-0.074219l-0.015625-0.003907c-0.03125-0.027343-0.070313-0.054687-0.10547-0.082031l-0.007813-0.003906c-0.03125-0.027344-0.070312-0.054687-0.10156-0.082031l-0.007812-0.007813c-0.074219-0.058593-0.14844-0.12109-0.21875-0.18359v-0.003907c-0.035157-0.03125-0.074219-0.066406-0.10938-0.097656v-0.003906c-0.027343-0.023438-0.050781-0.046875-0.074218-0.070313l-0.003906-0.003906h-0.003907v0.55078l-53.738-0.007812v-71.277h53.738v18.363l7.25-0.027344v-25.254h-57.332v5.1211h-5.4492zm51.293 35.949 5.2773-0.023437v3.2227l6.1914-0.015625v-3.2383l5.3633-0.023437 1.9766 1.8711 4.2969-0.019531-0.074219-17.727-4.2969 0.019531-1.9648 1.8906-16.832 0.070312-1.9766-1.8711-4.2969 0.019532 0.074219 17.727 4.2969-0.019531 1.9648-1.8867zm5.2812 5.1523v2.2539l6.1914-0.015624v-2.2539zm0 4.2109v2.2539l6.1914-0.019531v-2.2539zm0 4.2031v16.113c-1.4414 1.6602-1.3164 4.1641 0.27734 5.6719 1.5977 1.5156 4.0977 1.5039 5.6836-0.023437 1.5859-1.5234 1.6875-4.0234 0.23047-5.6719v-16.105zm-4.3477-25.746 0.03125 10.379-1.6914 0.003907-0.26563 0.25391-0.03125-10.863 0.25 0.23438 1.7031-0.007813zm14.91 10.312-0.03125-10.371 1.6914-0.007812 0.26562-0.25 0.03125 10.863-0.25-0.23438-1.7031 0.003906zm-56.758-3.9805c0.53516 0 0.97656 0.44141 0.97656 0.98047 0 0.54297-0.44141 0.97656-0.97656 0.97656h-2.8164c-0.54297 0-0.98047-0.43359-0.98047-0.97656s0.44141-0.98047 0.98047-0.98047zm39.387 30.32c0.54297 0 0.97656 0.44141 0.97656 0.98047 0 0.53516-0.43359 0.97656-0.97656 0.97656h-33.871c-0.54297 0-0.98047-0.44141-0.98047-0.97656 0-0.54297 0.44141-0.98047 0.98047-0.98047zm0-10.109c0.54297 0 0.97656 0.44141 0.97656 0.98047 0 0.54297-0.43359 0.98047-0.97656 0.98047l-33.871 0.003907c-0.54297 0-0.98047-0.44141-0.98047-0.98047 0-0.54297 0.44141-0.98047 0.98047-0.98047h33.871zm0-10.105c0.54297 0 0.97656 0.43359 0.97656 0.97656 0 0.54297-0.43359 0.98047-0.97656 0.98047l-33.871 0.003906c-0.54297 0-0.98047-0.44141-0.98047-0.98047 0-0.54297 0.44141-0.97656 0.98047-0.97656h33.871zm-6.5469-8.1484h-27.324c-0.54297 0-0.98047-0.43359-0.98047-0.97656s0.44141-0.98047 0.98047-0.98047h27.316l0.007812 1.9609zm-32.84 28.363c0.53516 0 0.97656 0.44141 0.97656 0.98047 0 0.53516-0.44141 0.97656-0.97656 0.97656h-2.8164c-0.54297 0-0.98047-0.44141-0.98047-0.97656 0-0.54297 0.44141-0.98047 0.98047-0.98047zm0-10.109c0.53516 0 0.97656 0.44141 0.97656 0.98047 0 0.54297-0.44141 0.98047-0.97656 0.98047h-2.8164c-0.54297 0-0.98047-0.44141-0.98047-0.98047 0-0.54297 0.44141-0.98047 0.98047-0.98047zm0-10.105c0.53516 0 0.97656 0.43359 0.97656 0.97656 0 0.54297-0.44141 0.98047-0.97656 0.98047h-2.8164c-0.54297 0-0.98047-0.44141-0.98047-0.98047 0-0.54297 0.44141-0.97656 0.98047-0.97656zm17.105-14.695c-5.7266-2.5664-8.5273-7.7227-8.4141-15.469 0.003906-0.35937 0.27734-0.66016 0.64453-0.69922 1.4219-0.14844 2.7148-0.92578 3.5-2.125 0.14062-0.20703 0.35156-0.32422 0.60156-0.32422h9.6953c0.25 0 0.46484 0.11719 0.59766 0.32422 0.79297 1.1992 2.0781 1.9766 3.5039 2.125 0.35938 0.035156 0.64063 0.33984 0.64453 0.69922 0.11719 7.7461-2.6914 12.906-8.418 15.469-0.77344 0.35156-1.5781 0.35156-2.3555 0zm-2.7969-7.0664c-0.45312-0.29688-0.57812-0.90234-0.28516-1.3555 0.29688-0.44922 0.90234-0.57813 1.3555-0.28125l1.6914 1.1055 3.8789-5.0703c0.32812-0.42969 0.94531-0.51562 1.3711-0.18359 0.42969 0.32812 0.51562 0.94141 0.18359 1.3711l-4.4062 5.7617c-0.30078 0.43359-0.89453 0.55469-1.3438 0.26563l-2.4453-1.6055z" fill-rule="evenodd"/>
<text x="0.0" y="117.5" font-size="5.0" font-weight="bold" font-family="Arbeit Regular, Helvetica, Arial-Unicode, Arial, Sans-serif" fill="#000000">Created by hanis tusiyani</text><text x="0.0" y="122.5" font-size="5.0" font-weight="bold" font-family="Arbeit Regular, Helvetica, Arial-Unicode, Arial, Sans-serif" fill="#000000">from Noun Project</text></svg>