<svg xmlns="http://www.w3.org/2000/svg" version="1.1" viewBox="-5.0 -10.0 110.0 135.0">
 <path d="m8.8984 84.699v10.371c0 0.51172 0.42187 0.92969 0.92969 0.92969h6.25c0.51172 0 0.92969-0.42188 0.92969-0.92969v-10.371zm41.102-80.699c3.2188 0 5.8398 2.6094 5.8398 5.8398 0 2.5312-1.6094 4.6797-3.8594 5.4883v6.1406h-3.9609v-6.1406c-2.25-0.80859-3.8594-2.9609-3.8594-5.4883 0-3.2188 2.6094-5.8398 5.8398-5.8398zm-15.32 19.328h30.641c5.1289 0 9.3086 4.1797 9.3086 9.3086v18.199c0 5.1289-4.1797 9.3086-9.3086 9.3086h-30.641c-5.1289 0-9.3086-4.1797-9.3086-9.3086v-18.199c0-5.1289 4.1797-9.3086 9.3086-9.3086zm20 23.75v1.4297h-9.3516v-1.4297c0-0.51172-0.42188-0.92969-0.92969-0.92969-0.51172 0-0.92969 0.42187-0.92969 0.92969v2.3594c0 0.51172 0.42188 0.92969 0.92969 0.92969h11.219c0.51172 0 0.92969-0.42188 0.92969-0.92969v-2.3594c0-0.51172-0.42188-0.92969-0.92969-0.92969-0.51172 0-0.92969 0.42187-0.92969 0.92969zm-20-16.488c-0.55859 0-1.0703 0.23047-1.4414 0.60156-0.37109 0.37109-0.60156 0.87891-0.60156 1.4414v18.199c0 0.55859 0.23047 1.0703 0.60156 1.4414 0.37109 0.37109 0.87891 0.60156 1.4414 0.60156h30.641c0.55859 0 1.0703-0.23047 1.4414-0.60156 0.37109-0.37109 0.60156-0.87891 0.60156-1.4414v-18.199c0-0.55859-0.23047-1.0703-0.60156-1.4414-0.37109-0.37109-0.87891-0.60156-1.4414-0.60156zm-2.7578-0.71094c-0.71094 0.71094-1.1484 1.6914-1.1484 2.7617v18.199c0 1.0703 0.44141 2.0508 1.1484 2.7617 0.71094 0.71094 1.6914 1.1484 2.7617 1.1484h30.641c1.0703 0 2.0508-0.44141 2.7617-1.1484 0.71094-0.71094 1.1484-1.6914 1.1484-2.7617v-18.199c0-1.0703-0.44141-2.0508-1.1484-2.7617-0.71094-0.71094-1.6914-1.1484-2.7617-1.1484h-30.641c-1.0703 0-2.0508 0.44141-2.7617 1.1484zm27.648 4.9414c-0.92187 0-1.6719 0.75-1.6719 1.6719v3.8984c0 0.92188 0.75 1.6719 1.6719 1.6719 0.92188 0 1.6719-0.75 1.6719-1.6719v-3.8984c0-0.92188-0.75-1.6719-1.6719-1.6719zm-19.141 0c-0.92188 0-1.6719 0.75-1.6719 1.6719v3.8984c0 0.92188 0.75 1.6719 1.6719 1.6719 0.92187 0 1.6719-0.75 1.6719-1.6719v-3.8984c0-0.92188-0.75-1.6719-1.6719-1.6719zm-17.031 32.328h53.211c1.5391 0 2.7891 1.25 2.7891 2.7891v25.129c0 0.51172-0.42188 0.92969-0.92969 0.92969h-9.0781v-11.629c0-1.0312-0.42188-1.9609-1.0898-2.6289-0.67188-0.67188-1.6094-1.0898-2.6289-1.0898h-31.328c-1.0312 0-1.9609 0.42187-2.6289 1.0898-0.67188 0.67188-1.0898 1.6094-1.0898 2.6289v11.629h-9.0781c-0.51172 0-0.92969-0.42188-0.92969-0.92969v-25.129c0-1.5391 1.25-2.7891 2.7891-2.7891zm48.062 5.1914c-1.1406 0-2.0703 0.92969-2.0703 2.0703s0.92969 2.0703 2.0703 2.0703c1.1406 0 2.0703-0.92969 2.0703-2.0703s-0.92969-2.0703-2.0703-2.0703zm-42.922 0c-1.1406 0-2.0703 0.92969-2.0703 2.0703s0.92969 2.0703 2.0703 2.0703c1.1406 0 2.0703-0.92969 2.0703-2.0703s-0.92969-2.0703-2.0703-2.0703zm38.992 23.66v-11.629c0-0.51172-0.21094-0.98047-0.55078-1.3203-0.33984-0.33984-0.80078-0.55078-1.3203-0.55078h-31.328c-0.51172 0-0.98047 0.21094-1.3203 0.55078-0.33984 0.33984-0.55078 0.80078-0.55078 1.3203v11.629zm-48.793-26.059h-5.9883c-4.1016 0-7.4492 3.3516-7.4492 7.4492v3.5781c0 1.0312 0.83984 1.8594 1.8594 1.8594h11.57v-12.898zm62.523 0h5.9883c4.1016 0 7.4492 3.3516 7.4492 7.4492v3.5781c0 1.0312-0.83984 1.8594-1.8594 1.8594h-11.57v-12.898zm-23.07-4.6523v-3.2695h-16.379v3.2695zm-34.68-31.59h-2.1797c-1.9414 0-3.5312 1.5781-3.5312 3.5312v9.0391c0 1.9414 1.5781 3.5312 3.5312 3.5312h2.1797zm52.977 0h2.1797c1.9414 0 3.5312 1.5781 3.5312 3.5312v9.0391c0 1.9414-1.5781 3.5312-3.5312 3.5312h-2.1797zm6.5 51v10.371c0 0.51172 0.42188 0.92969 0.92969 0.92969h6.25c0.51172 0 0.92969-0.42188 0.92969-0.92969v-10.371z" fill-rule="evenodd"/>
<text x="0.0" y="117.5" font-size="5.0" font-weight="bold" font-family="Arbeit Regular, Helvetica, Arial-Unicode, Arial, Sans-serif" fill="#000000">Created by Merlin</text><text x="0.0" y="122.5" font-size="5.0" font-weight="bold" font-family="Arbeit Regular, Helvetica, Arial-Unicode, Arial, Sans-serif" fill="#000000">from Noun Project</text></svg>