<svg xmlns="http://www.w3.org/2000/svg" version="1.1" viewBox="-5.0 -10.0 110.0 135.0">
 <path d="m73.066 69.934-0.31641 0.32422c2.5703 2.6719 4.1641 6.1289 4.5273 9.8164h9.2695c-0.30469-6.1953-2.8477-12.066-7.1562-16.527zm-9.0078 6.832h0.003906c1.3398 1.207 1.7734 3.1289 1.082 4.7969-0.42188 1.0234-1.2344 1.8398-2.2617 2.2656-1.0234 0.42188-2.1758 0.41797-3.1992-0.011719-2.1289-0.92188-3.1211-3.3828-2.2305-5.5234 0.68359-1.6602 2.3555-2.6992 4.1484-2.5703l5.1055-12.312-1.0703 0.68359c-0.30078 0.19141-0.66406 0.25391-1.0078 0.17188-0.34766-0.078125-0.64453-0.28906-0.83203-0.59375-0.38672-0.62891-0.19922-1.457 0.42188-1.8594l4.6562-2.9609h-0.003906c0.37109-0.23437 0.82812-0.26953 1.2305-0.097656 0.39844 0.16797 0.69141 0.52344 0.78125 0.94922l1.1641 5.4375c0.16016 0.71875-0.29688 1.4297-1.0195 1.5898-0.71875 0.15625-1.4297-0.30078-1.5859-1.0195l-0.26562-1.25zm10.59-12.25 2.7695-2.8008c-1.2344-1.0312-2.5586-1.9453-3.9609-2.7266 0.015625 0.050781 0.027344 0.097657 0.039063 0.14844zm-7.2539-7.9219v0.003906c-1.5586-0.39453-3.1562-0.63281-4.7617-0.71484v3.7461c0.054688-0.03125 0.10547-0.066406 0.15625-0.10547zm-15.977 11.43 0.46094 0.45703v0.003906c2.3555-1.7578 5.1562-2.8242 8.0859-3.0742v-9.5312c-5.4336 0.28516-10.625 2.332-14.785 5.8281zm-5.957 12.047v0.003907c0.30078-3.6758 1.8555-7.1367 4.4062-9.8047l-6.6562-6.7266h-0.003907c-4.3047 4.4609-6.8477 10.332-7.1562 16.527zm51.633-55.277 2.0625 11.117c0.042969 0.20703-0.011719 0.42188-0.14844 0.58203-0.14062 0.16016-0.34375 0.25-0.55469 0.23828l-11.18-0.49609c-0.26563-0.015625-0.49609-0.17969-0.60156-0.42578-0.10156-0.24219-0.058594-0.52344 0.11328-0.72266l2.1562-2.5078-11.777-10.293c-0.12891-0.11328-0.32422-0.11328-0.45312 0l-10.043 9.1875c-1.3945 1.3125-3.5703 1.3203-4.9766 0.023438l-12.266-11.598c-0.058593-0.050782-0.13281-0.085938-0.21094-0.09375l-14.102-0.75391c-0.90234-0.054687-1.6172-0.78516-1.6523-1.6875-0.035157-0.90234 0.62109-1.6875 1.5156-1.8125l15.789-2.125c1.1289-0.15234 2.2656 0.23047 3.0742 1.0352l10.07 9.0586c0.13281 0.11719 0.33203 0.11328 0.46094-0.003906l10.035-9.168v-0.003906c1.3984-1.2812 3.543-1.2812 4.9414 0h0.003906l14.418 12.605 2.125-2.4844c0.17188-0.20312 0.44531-0.28516 0.70312-0.21484 0.25391 0.070312 0.44922 0.28125 0.49219 0.54297zm-91.332 7.8945h46.695c1.9062 0.019531 3.4414 1.5703 3.4375 3.4727v17.52c-5.7461 1.1406-10.984 4.0742-14.965 8.3711-0.18359-0.53906-0.69141-0.90234-1.2617-0.90625h-2.4062c-0.73047 0.019531-1.3125 0.62109-1.3125 1.3516 0 0.73438 0.58203 1.332 1.3125 1.3516h2.1328c-1.3594 1.7305-2.5078 3.6133-3.4297 5.6094h-30.203c-1.9062-0.019531-3.4414-1.5703-3.4375-3.4805v-29.809c0-1.9062 1.5312-3.4531 3.4375-3.4727zm1.7734 6.1562c-0.73047-0.023438-1.3125-0.62109-1.3125-1.3555 0-0.73047 0.58203-1.3281 1.3125-1.3516h5.7695c0.73437 0.023437 1.3164 0.62109 1.3164 1.3516 0 0.73438-0.58203 1.332-1.3164 1.3555zm5.7695 1.0742v-0.003907c0.73437 0.019532 1.3164 0.62109 1.3164 1.3516 0 0.73438-0.58203 1.332-1.3164 1.3516h-5.7695c-0.73047-0.019532-1.3125-0.61719-1.3125-1.3516 0-0.73047 0.58203-1.332 1.3125-1.3516zm-5.7695 23.93c-0.73047-0.019531-1.3125-0.61719-1.3125-1.3516 0-0.73047 0.58203-1.332 1.3125-1.3516h26.625c0.73047 0.019531 1.3125 0.62109 1.3125 1.3516 0 0.73438-0.58203 1.332-1.3125 1.3516zm19.113-12.52c-0.74609 0-1.3516-0.60547-1.3516-1.3516 0-0.74609 0.60547-1.3516 1.3516-1.3516h14.805c0.75 0 1.3516 0.60547 1.3516 1.3516 0 0.74609-0.60156 1.3516-1.3516 1.3516zm0-5.8086v0.003907c-0.73438-0.023438-1.3164-0.62109-1.3164-1.3516 0-0.73438 0.58203-1.332 1.3164-1.3555h9.6055c0.73047 0.023438 1.3164 0.62109 1.3164 1.3555 0 0.73047-0.58594 1.3281-1.3164 1.3516zm-13.953 0.625h6.0977c1.7461 0.015625 3.1523 1.4375 3.1445 3.1836v3.4961c0.003906 1.7422-1.4023 3.1641-3.1445 3.1758h-6.0977c-1.7461-0.011719-3.1562-1.4336-3.1523-3.1797v-3.4922c-0.003907-1.75 1.4062-3.1719 3.1523-3.1836zm6.0977 2.7031-6.0977 0.003906c-0.26172 0-0.47266 0.21484-0.47656 0.47656v3.4961c0.003906 0.26172 0.21484 0.47266 0.47656 0.47656h6.0977c0.26172-0.007812 0.46875-0.21484 0.47266-0.47656v-3.4961c-0.003906-0.26172-0.21094-0.47266-0.47266-0.47656zm-5.2617-24.496 20.797 5.6367h-25.852l0.84375-3.1758c0.23047-0.88672 0.80078-1.6445 1.5938-2.1055 0.78906-0.46094 1.7305-0.58984 2.6172-0.35156zm45.039 12.211v0.003906c0.90234 0.23047 1.6719 0.8125 2.1406 1.6172 0.46875 0.80469 0.59375 1.7617 0.35156 2.6602l-2.4961 9.4219z" fill-rule="evenodd"/>
<text x="0.0" y="117.5" font-size="5.0" font-weight="bold" font-family="Arbeit Regular, Helvetica, Arial-Unicode, Arial, Sans-serif" fill="#000000">Created by Rokhman Kharis</text><text x="0.0" y="122.5" font-size="5.0" font-weight="bold" font-family="Arbeit Regular, Helvetica, Arial-Unicode, Arial, Sans-serif" fill="#000000">from Noun Project</text></svg>