<svg xmlns="http://www.w3.org/2000/svg" viewBox="0 0 32 40" x="0px" y="0px"><title>web</title><g data-name="Layer 2"><path d="M28.385,6.077l-12-5a1.007,1.007,0,0,0-.77,0l-12,5A1,1,0,0,0,3,7v5.644a19.1,19.1,0,0,0,9.442,16.438L15.5,30.864a1,1,0,0,0,1.008,0l3.055-1.782A19.1,19.1,0,0,0,29,12.644V7A1,1,0,0,0,28.385,6.077ZM27,12.644a17.087,17.087,0,0,1-8.449,14.71L16,28.842l-2.55-1.488A17.088,17.088,0,0,1,5,12.644V7.667L16,3.083,27,7.667Z"/><path d="M11.707,14.168a1,1,0,0,0-1.414,1.414l3.75,3.75a1,1,0,0,0,1.414,0l6.25-6.25a1,1,0,0,0-1.414-1.414L14.75,17.211Z"/></g><text x="0" y="47" fill="#000000" font-size="5px" font-weight="bold" font-family="'Helvetica Neue', Helvetica, Arial-Unicode, Arial, Sans-serif">Created by Ilham Fitrotul Hayat</text><text x="0" y="52" fill="#000000" font-size="5px" font-weight="bold" font-family="'Helvetica Neue', Helvetica, Arial-Unicode, Arial, Sans-serif">from the Noun Project</text></svg>