<svg xmlns="http://www.w3.org/2000/svg" data-name="Слой 3" viewBox="0 0 123.38712 143.3491125" x="0px" y="0px"><title>14</title><path d="M204.03134,121.39364A56.79929,56.79929,0,0,0,169.219,94.88019a3.11939,3.11939,0,0,1-1.19281-.3147,57.0631,57.0631,0,0,0-47.50189,8.51973,5.198,5.198,0,0,0,5.97929,8.50451,46.71741,46.71741,0,0,1,38.86795-6.97415,3.08665,3.08665,0,0,1,1.19282.3147,46.77895,46.77895,0,1,1-57.69251,35.75394l1.35236,2.37548a5.1978,5.1978,0,0,0,9.03495-5.14179L111.601,124.4645a5.1973,5.1973,0,0,0-7.08836-1.94657l-13.45341,7.65685A5.19778,5.19778,0,1,0,96.201,139.2097l2.63038-1.497a57.167,57.167,0,1,0,105.19994-16.319Z" transform="translate(-88.43144 -92.66036)"/><path d="M154.89124,117.55633a5.19788,5.19788,0,0,0-5.19762,5.19762v27.34081a5.2217,5.2217,0,0,0,.10263,1.01785c.03061.154.088.2963.132.44509a3.03546,3.03546,0,0,0,.42494,1.02261c.07249.13229.13054.26981.2154.39671a5.22016,5.22016,0,0,0,.65113.79595L163.85,166.40331a5.19707,5.19707,0,0,0,7.34976-7.34976l-11.11093-11.11093V122.754A5.19788,5.19788,0,0,0,154.89124,117.55633Z" transform="translate(-88.43144 -92.66036)"/><text x="0" y="129.67928999999998" fill="#000000" font-size="5px" font-weight="bold" font-family="'Helvetica Neue', Helvetica, Arial-Unicode, Arial, Sans-serif">Created by Chintuza</text><text x="0" y="134.67928999999998" fill="#000000" font-size="5px" font-weight="bold" font-family="'Helvetica Neue', Helvetica, Arial-Unicode, Arial, Sans-serif">from the Noun Project</text></svg>